<svg width="22" height="21" viewBox="0 0 22 21" fill="none" xmlns="http://www.w3.org/2000/svg">
<circle cx="5.1" cy="6.1" r="5.1" fill="url(#paint0_linear)"/>
<circle cx="9" cy="17" r="2" fill="#F54D3B"/>
<circle cx="7" cy="19" r="2" fill="#F54D3B"/>
<path d="M8 14.9C8 16.5016 6.65685 17.8 5 17.8C3.34315 17.8 2 16.5016 2 14.9C2 13.2984 3.34315 12 5 12C6.65685 12 8 13.2984 8 14.9Z" fill="#F54D3B"/>
<path d="M13.75 18.1C17.5365 18.1 20.6 14.9178 20.6 11C20.6 7.08224 17.5365 3.9 13.75 3.9C9.96345 3.9 6.9 7.08224 6.9 11C6.9 14.9178 9.96345 18.1 13.75 18.1Z" fill="url(#paint1_linear)" stroke="url(#paint2_linear)" stroke-width="0.2"/>
<g filter="url(#filter0_f)">
<path d="M7.29279 4.5C7.29279 5.32843 6.62121 6 5.79279 6C4.96436 6 4.29279 5.32843 4.29279 4.5C4.29279 3.67157 4.96436 3 5.79279 3C6.62121 3 7.29279 3.67157 7.29279 4.5Z" fill="white"/>
</g>
<g filter="url(#filter1_f)">
<path d="M19 11.5C19 12.3284 18.3284 13 17.5 13C16.6716 13 16 12.3284 16 11.5C16 10.6716 16.6716 10 17.5 10C18.3284 10 19 10.6716 19 11.5Z" fill="white"/>
</g>
<g filter="url(#filter2_f)">
<path d="M7 15C7 15.5523 6.55228 16 6 16C5.44772 16 5 15.5523 5 15C5 14.4477 5.44772 14 6 14C6.55228 14 7 14.4477 7 15Z" fill="white"/>
</g>
<g filter="url(#filter3_f)">
<path d="M8 19.5C8 19.7761 7.77614 20 7.5 20C7.22386 20 7 19.7761 7 19.5C7 19.2239 7.22386 19 7.5 19C7.77614 19 8 19.2239 8 19.5Z" fill="white"/>
</g>
<g filter="url(#filter4_f)">
<path d="M9 16.5C9 16.7761 8.77614 17 8.5 17C8.22386 17 8 16.7761 8 16.5C8 16.2239 8.22386 16 8.5 16C8.77614 16 9 16.2239 9 16.5Z" fill="white"/>
</g>
<defs>
<filter id="filter0_f" x="1.29279" y="0" width="9" height="9" filterUnits="userSpaceOnUse" color-interpolation-filters="sRGB">
<feFlood flood-opacity="0" result="BackgroundImageFix"/>
<feBlend mode="normal" in="SourceGraphic" in2="BackgroundImageFix" result="shape"/>
<feGaussianBlur stdDeviation="1.5" result="effect1_foregroundBlur"/>
</filter>
<filter id="filter1_f" x="13" y="7" width="9" height="9" filterUnits="userSpaceOnUse" color-interpolation-filters="sRGB">
<feFlood flood-opacity="0" result="BackgroundImageFix"/>
<feBlend mode="normal" in="SourceGraphic" in2="BackgroundImageFix" result="shape"/>
<feGaussianBlur stdDeviation="1.5" result="effect1_foregroundBlur"/>
</filter>
<filter id="filter2_f" x="3" y="12" width="6" height="6" filterUnits="userSpaceOnUse" color-interpolation-filters="sRGB">
<feFlood flood-opacity="0" result="BackgroundImageFix"/>
<feBlend mode="normal" in="SourceGraphic" in2="BackgroundImageFix" result="shape"/>
<feGaussianBlur stdDeviation="1" result="effect1_foregroundBlur"/>
</filter>
<filter id="filter3_f" x="6" y="18" width="3" height="3" filterUnits="userSpaceOnUse" color-interpolation-filters="sRGB">
<feFlood flood-opacity="0" result="BackgroundImageFix"/>
<feBlend mode="normal" in="SourceGraphic" in2="BackgroundImageFix" result="shape"/>
<feGaussianBlur stdDeviation="0.5" result="effect1_foregroundBlur"/>
</filter>
<filter id="filter4_f" x="7" y="15" width="3" height="3" filterUnits="userSpaceOnUse" color-interpolation-filters="sRGB">
<feFlood flood-opacity="0" result="BackgroundImageFix"/>
<feBlend mode="normal" in="SourceGraphic" in2="BackgroundImageFix" result="shape"/>
<feGaussianBlur stdDeviation="0.5" result="effect1_foregroundBlur"/>
</filter>
<linearGradient id="paint0_linear" x1="6" y1="11" x2="2" y2="-33" gradientUnits="userSpaceOnUse">
<stop stop-color="#F54D3B"/>
<stop offset="0.875114" stop-color="#F54D3B" stop-opacity="0"/>
</linearGradient>
<linearGradient id="paint1_linear" x1="12.5" y1="7.5" x2="39.5" y2="30.5" gradientUnits="userSpaceOnUse">
<stop stop-color="#F54D3B"/>
<stop offset="1" stop-color="#F54D3B" stop-opacity="0"/>
</linearGradient>
<linearGradient id="paint2_linear" x1="13.75" y1="4" x2="26" y2="15.5" gradientUnits="userSpaceOnUse">
<stop stop-opacity="0"/>
<stop offset="1"/>
</linearGradient>
</defs>
</svg>
